<svg width="194" height="51" viewBox="0 0 194 51" fill="none" xmlns="http://www.w3.org/2000/svg">
<g filter="url(#filter0_d_30_233)">
<path d="M70.8011 36.4363H66.158L53.2504 11.6168V36.4363H49.068V5H53.735L66.6931 29.5965V5H70.8011V36.4363Z" fill="white"/>
<path d="M86.7373 14.1845V27.3076C86.7373 32.1489 88.9813 34.5689 93.47 34.5689C97.9198 34.5689 100.145 32.8231 100.145 29.3301H104.025C104.025 34.0679 100.507 36.4363 93.47 36.4363C86.3942 36.4363 82.8579 33.3936 82.8579 27.3076V14.1845C82.8579 8.09916 86.3942 5.05574 93.47 5.05574C100.507 5.05574 104.025 7.42482 104.025 12.1618H100.145C100.145 8.66951 97.9198 6.92302 93.47 6.92302C88.9813 6.92302 86.7373 9.34385 86.7373 14.1845Z" fill="white"/>
<path d="M126.276 24.766V16.726C126.276 10.1908 124.051 6.92308 119.601 6.92308C115.226 6.92308 112.981 9.22278 112.868 13.8214V34.5688H119.601C124.051 34.5688 126.276 31.3011 126.276 24.766ZM108.988 36.4362V5.0558H112.868V7.13039C114.389 5.74793 116.634 5.0558 119.601 5.0558C126.637 5.0558 130.156 8.94609 130.156 16.726V24.766C130.156 32.5461 126.637 36.4362 119.601 36.4362H108.988Z" fill="white"/>
<path d="M153.491 5.05579V6.92307H138.999V19.6828H151.836V21.5502H138.999V34.5688H153.491V36.4362H135.12V5.05579H153.491Z" fill="white"/>
<path d="M179.622 5.05579V6.92307H171.007V36.4362H167.069V6.92307H158.454V5.05579H179.622Z" fill="white"/>
<path d="M79.6972 35.6712H76.2853V5.18114H79.6972V35.6712Z" fill="white"/>
<path d="M18.7457 21.6769C18.7457 26.0199 22.2662 29.5404 26.6091 29.5404C30.952 29.5404 34.4725 26.0199 34.4725 21.6769C34.4725 17.3341 30.952 13.8136 26.6091 13.8136C22.2662 13.8136 18.7457 17.3341 18.7457 21.6769Z" fill="white"/>
<path d="M33.5767 10.0808C33.5767 12.6371 35.649 14.7092 38.2053 14.7092C40.7616 14.7092 42.8339 12.6371 42.8339 10.0808C42.8339 7.52451 40.7616 5.45239 38.2053 5.45239C35.649 5.45239 33.5767 7.52451 33.5767 10.0808Z" fill="white"/>
<path d="M7.09956 16.2522C7.09956 18.8085 9.17184 20.8808 11.728 20.8808C14.2844 20.8808 16.3567 18.8085 16.3567 16.2522C16.3567 13.6959 14.2844 11.6238 11.728 11.6238C9.17184 11.6238 7.09956 13.6959 7.09956 16.2522Z" fill="white"/>
<path d="M12.5743 22.4732C10.683 22.971 7 21.6769 7 21.6769C7 21.6769 7.49784 28.2464 12.1759 31.1331C15.962 33.4692 23.3985 33.8497 26.0975 33.9097C25.3259 33.713 23.9783 33.266 21.6322 32.3275C15.6598 29.9387 15.5604 21.6769 15.5604 21.6769C15.5604 21.6769 14.4655 21.9758 12.5743 22.4732ZM27.1065 33.9203C27.1065 33.9203 26.7336 33.9239 26.0975 33.9097C27.2903 34.2139 27.1065 33.9203 27.1065 33.9203Z" fill="white"/>
<path d="M24.0211 7.44311C18.9448 9.53336 16.2572 12.5196 16.2572 12.5196C16.2572 12.5196 16.8544 11.9222 24.3197 11.325C30.9843 10.792 31.4612 11.4488 31.4868 11.5958C31.4864 11.6142 31.4864 11.6238 31.4864 11.6238C31.4864 11.6238 31.4899 11.6134 31.4868 11.5958C31.4896 11.4338 31.5171 10.575 31.7849 9.23491C32.0838 7.74155 34.4725 5.35285 34.4725 5.35285C34.4725 5.35285 29.0974 5.35286 24.0211 7.44311Z" fill="white"/>
<path d="M41.2412 16.4017C38.9517 17.2973 35.2688 17.2973 35.2688 17.2973C35.2688 17.2973 36.563 18.7903 36.9608 22.6726C37.3591 26.5545 35.9656 30.4363 35.9656 30.4363C35.9656 30.4363 38.9517 29.043 41.4402 23.9664C43.9285 18.8899 44.3268 14.3112 44.3268 14.3112C44.3268 14.3112 43.5306 15.5055 41.2412 16.4017Z" fill="white"/>
<path d="M27.6044 35.3634C27.6044 37.9198 29.6765 39.9919 32.2328 39.9919C34.7893 39.9919 36.8614 37.9198 36.8614 35.3634C36.8614 32.8072 34.7893 30.735 32.2328 30.735C29.6765 30.735 27.6044 32.8072 27.6044 35.3634Z" fill="white"/>
<path d="M38.0212 41.4215H187V39.6935H38.0212V41.4215Z" fill="white"/>
</g>
<defs>
<filter id="filter0_d_30_233" x="0" y="0" width="194" height="50.4215" filterUnits="userSpaceOnUse" color-interpolation-filters="sRGB">
<feFlood flood-opacity="0" result="BackgroundImageFix"/>
<feColorMatrix in="SourceAlpha" type="matrix" values="0 0 0 0 0 0 0 0 0 0 0 0 0 0 0 0 0 0 127 0" result="hardAlpha"/>
<feOffset dy="2"/>
<feGaussianBlur stdDeviation="3.5"/>
<feComposite in2="hardAlpha" operator="out"/>
<feColorMatrix type="matrix" values="0 0 0 0 0 0 0 0 0 0 0 0 0 0 0 0 0 0 0.25 0"/>
<feBlend mode="normal" in2="BackgroundImageFix" result="effect1_dropShadow_30_233"/>
<feBlend mode="normal" in="SourceGraphic" in2="effect1_dropShadow_30_233" result="shape"/>
</filter>
</defs>
</svg>
