<svg width="26" height="26" viewBox="0 0 26 26" fill="none" xmlns="http://www.w3.org/2000/svg">
<path d="M11.0355 2.17449L12.3064 0.903595C12.8446 0.365468 13.7147 0.365468 14.2471 0.903595L25.376 12.0268C25.9142 12.5649 25.9142 13.4351 25.376 13.9675L14.2471 25.0964C13.709 25.6345 12.8388 25.6345 12.3064 25.0964L11.0355 23.8255C10.4917 23.2817 10.5031 22.3943 11.0584 21.8619L17.9568 15.2899H1.50382C0.742432 15.2899 0.129883 14.6774 0.129883 13.916V12.084C0.129883 11.3226 0.742432 10.7101 1.50382 10.7101H17.9568L11.0584 4.13808C10.4974 3.60568 10.486 2.71834 11.0355 2.17449Z" fill="#444444"/>
</svg>
